<mxfile host="app.diagrams.net" modified="2021-01-26T07:21:40.849Z" agent="5.0 (Windows NT 10.0; Win64; x64) AppleWebKit/537.36 (KHTML, like Gecko) Chrome/87.0.4280.141 Safari/537.36" etag="LFe3RpQ3zc9m2kHQNVR8" version="14.2.2" type="github">
  <diagram id="QaqqHzPhQSLQJ9ipFRWG" name="Page-1">
    <mxGraphModel dx="2062" dy="1050" grid="1" gridSize="10" guides="1" tooltips="1" connect="1" arrows="1" fold="1" page="1" pageScale="1" pageWidth="827" pageHeight="1169" math="0" shadow="0">
      <root>
        <mxCell id="0" />
        <mxCell id="1" parent="0" />
        <mxCell id="RyAhWsrz8nEDhbQW0XfM-1" value="&lt;pre id=&quot;empty-setup-new-repo-echo&quot; class=&quot;copyable-terminal-content f5&quot; style=&quot;box-sizing: border-box ; font-family: , &amp;#34;consolas&amp;#34; , &amp;#34;liberation mono&amp;#34; , &amp;#34;menlo&amp;#34; , monospace ; font-size: 14px ; margin-top: 0px ; margin-bottom: 0px ; overflow: auto ; color: rgb(36 , 41 , 46)&quot;&gt;&lt;span class=&quot;user-select-contain&quot; style=&quot;box-sizing: border-box&quot;&gt;3deformr Deformation&lt;/span&gt;&lt;/pre&gt;" style="rounded=0;whiteSpace=wrap;html=1;" vertex="1" parent="1">
          <mxGeometry x="289" y="360" width="250" height="60" as="geometry" />
        </mxCell>
        <mxCell id="RyAhWsrz8nEDhbQW0XfM-3" value="Initialization" style="rounded=0;whiteSpace=wrap;html=1;strokeColor=#6c8ebf;fillColor=#dae8fc;" vertex="1" parent="1">
          <mxGeometry x="150" y="450" width="120" height="20" as="geometry" />
        </mxCell>
        <mxCell id="RyAhWsrz8nEDhbQW0XfM-4" value="Mesh initialization" style="rounded=0;whiteSpace=wrap;html=1;" vertex="1" parent="1">
          <mxGeometry x="190" y="500" width="120" height="60" as="geometry" />
        </mxCell>
        <mxCell id="RyAhWsrz8nEDhbQW0XfM-8" value="" style="edgeStyle=orthogonalEdgeStyle;rounded=0;orthogonalLoop=1;jettySize=auto;html=1;" edge="1" parent="1" source="RyAhWsrz8nEDhbQW0XfM-5" target="RyAhWsrz8nEDhbQW0XfM-7">
          <mxGeometry relative="1" as="geometry" />
        </mxCell>
        <mxCell id="RyAhWsrz8nEDhbQW0XfM-5" value="Calibration" style="rounded=0;whiteSpace=wrap;html=1;" vertex="1" parent="1">
          <mxGeometry x="50" y="500" width="120" height="60" as="geometry" />
        </mxCell>
        <mxCell id="RyAhWsrz8nEDhbQW0XfM-10" value="" style="edgeStyle=orthogonalEdgeStyle;rounded=0;orthogonalLoop=1;jettySize=auto;html=1;" edge="1" parent="1" source="RyAhWsrz8nEDhbQW0XfM-7" target="RyAhWsrz8nEDhbQW0XfM-9">
          <mxGeometry relative="1" as="geometry" />
        </mxCell>
        <mxCell id="RyAhWsrz8nEDhbQW0XfM-7" value="Screen eye Calibration" style="rounded=0;whiteSpace=wrap;html=1;" vertex="1" parent="1">
          <mxGeometry y="640" width="120" height="60" as="geometry" />
        </mxCell>
        <mxCell id="RyAhWsrz8nEDhbQW0XfM-9" value="&lt;br&gt;&lt;span&gt;Hand Position Calibration&lt;/span&gt;&lt;br&gt;" style="rounded=0;whiteSpace=wrap;html=1;" vertex="1" parent="1">
          <mxGeometry y="740" width="120" height="60" as="geometry" />
        </mxCell>
        <mxCell id="RyAhWsrz8nEDhbQW0XfM-11" value="Mesh initialization" style="rounded=0;whiteSpace=wrap;html=1;" vertex="1" parent="1">
          <mxGeometry x="330" y="500" width="120" height="60" as="geometry" />
        </mxCell>
      </root>
    </mxGraphModel>
  </diagram>
</mxfile>
